<?xml version="1.0" encoding="UTF-8"?>
<svg version="1.1" xmlns="http://www.w3.org/2000/svg" width="800" height="800">
<path d="M0 0 C264 0 528 0 800 0 C800 264 800 528 800 800 C536 800 272 800 0 800 C0 536 0 272 0 0 Z " fill="#FEFEFE" transform="translate(0,0)"/>
<path d="M0 0 C12.08779464 11.15196537 21.2927773 24.71055459 28.625 39.375 C29.35275635 39.37910889 30.0805127 39.38321777 30.83032227 39.38745117 C67.16276886 39.7438473 97.12382873 48.38277996 125.625 71.375 C126.32753906 71.93316406 127.03007813 72.49132812 127.75390625 73.06640625 C132.22820849 76.73993851 135.92791398 80.93369536 139.625 85.375 C140.24117187 86.08011719 140.85734375 86.78523438 141.4921875 87.51171875 C162.58105845 112.45417856 172.57567684 145.73400713 170.90625 178.14697266 C169.37122272 195.76514168 164.93935415 212.77404382 156.625 228.375 C156.29258301 229.01405273 155.96016602 229.65310547 155.61767578 230.31152344 C150.39510175 240.34402367 150.39510175 240.34402367 148.18359375 243.3046875 C147.31702691 245.61165956 147.31702691 245.61165956 149.15234375 248.484375 C149.94402286 249.70558575 150.74834694 250.91865581 151.5625 252.125 C168.58458859 278.975866 175.13844855 312.15914482 168.52734375 343.40625 C168.2289247 344.72970153 167.92820647 346.05263708 167.625 347.375 C167.35816406 348.6021875 167.09132813 349.829375 166.81640625 351.09375 C161.87202492 371.66237635 152.27861775 389.31834552 138.625 405.375 C138.00109375 406.13296875 137.3771875 406.8909375 136.734375 407.671875 C131.62714337 413.69259521 125.88425935 418.58330711 119.625 423.375 C118.85671875 423.97054688 118.0884375 424.56609375 117.296875 425.1796875 C105.99695383 433.52010551 93.63844733 439.33233321 80.375 443.8125 C79.4061084 444.14241943 78.4372168 444.47233887 77.43896484 444.81225586 C66.67972574 448.2863475 56.61238764 449.53728111 45.33764648 449.09082031 C35.55345738 448.49607912 35.55345738 448.49607912 26.68115234 451.77441406 C23.64115085 455.47234923 22.10963811 459.79240474 20.50292969 464.25341797 C19.09808834 467.64832101 16.98833529 470.35056879 14.6875 473.1875 C14.26686279 473.7148877 13.84622559 474.24227539 13.4128418 474.78564453 C12.16628572 476.32854262 10.89580098 477.85200905 9.625 479.375 C8.84511719 480.31988281 8.06523437 481.26476562 7.26171875 482.23828125 C-12.49277088 505.09658595 -42.55517398 520.30853816 -72.375 524.375 C-77.69222832 524.76142075 -82.98448335 524.81276491 -88.3125 524.75 C-89.36257736 524.74351944 -89.36257736 524.74351944 -90.43386841 524.73690796 C-100.70197233 524.66268917 -110.40996189 524.1301053 -120.375 521.375 C-121.76152173 521.03045619 -123.14825051 520.68674478 -124.53515625 520.34375 C-153.25770682 512.89728288 -178.11781757 494.31804104 -195.5 470.5625 C-195.93820068 469.97654053 -196.37640137 469.39058105 -196.82788086 468.78686523 C-199.05218242 465.69481146 -200.39193417 463.32062941 -201.54296875 459.625 C-202.93996819 455.27666046 -203.78031918 453.26457035 -207.375 450.375 C-214.3904066 448.93173908 -221.62913961 449.3745577 -228.75390625 449.453125 C-256.39292742 449.63293597 -285.31974889 436.00930907 -305.20703125 417.38671875 C-307.45895684 415.23772449 -307.45895684 415.23772449 -310.4375 413 C-333.20442928 392.65508447 -346.03295568 361.16137563 -349.375 331.375 C-350.79378754 300.30933082 -344.19024276 271.15142937 -326.375 245.375 C-326.70371094 244.80136719 -327.03242188 244.22773438 -327.37109375 243.63671875 C-345.30323982 211.61155815 -354.63077193 177.89216442 -346.375 141.375 C-346.20871094 140.62766602 -346.04242188 139.88033203 -345.87109375 139.11035156 C-343.23292329 127.65385207 -339.05574742 117.63708512 -333.375 107.375 C-332.79621094 106.29347656 -332.21742188 105.21195313 -331.62109375 104.09765625 C-327.60272991 96.85341332 -322.78735648 90.62736948 -317.375 84.375 C-316.35599609 83.15490234 -316.35599609 83.15490234 -315.31640625 81.91015625 C-311.81024907 77.76253996 -311.81024907 77.76253996 -310.375 76.375 C-309.715 76.375 -309.055 76.375 -308.375 76.375 C-307.88 74.89 -307.88 74.89 -307.375 73.375 C-289.02902447 54.54659579 -258.56946726 41.45012424 -232.375 40.375 C-230.31881215 40.40534455 -228.26279081 40.44821298 -226.20703125 40.5 C-214.61812093 41.29129168 -214.61812093 41.29129168 -204.5625 36.9140625 C-202.82953336 33.47312392 -201.64140839 30.01118456 -200.375 26.375 C-198.93409138 23.87467919 -197.27925115 21.56724496 -195.5625 19.25 C-195.13864014 18.66702148 -194.71478027 18.08404297 -194.27807617 17.48339844 C-173.81017882 -10.21005798 -143.13176595 -28.50754249 -109.20092773 -33.9753418 C-68.50147332 -39.13675384 -30.49957339 -26.72737879 0 0 Z " fill="#FEFEFE" transform="translate(489.375,42.625)"/>
<path d="M0 0 C12.08779464 11.15196537 21.2927773 24.71055459 28.625 39.375 C29.35275635 39.37910889 30.0805127 39.38321777 30.83032227 39.38745117 C67.16276886 39.7438473 97.12382873 48.38277996 125.625 71.375 C126.32753906 71.93316406 127.03007813 72.49132812 127.75390625 73.06640625 C132.22820849 76.73993851 135.92791398 80.93369536 139.625 85.375 C140.24117187 86.08011719 140.85734375 86.78523438 141.4921875 87.51171875 C162.58105845 112.45417856 172.57567684 145.73400713 170.90625 178.14697266 C169.37122272 195.76514168 164.93935415 212.77404382 156.625 228.375 C156.29258301 229.01405273 155.96016602 229.65310547 155.61767578 230.31152344 C150.39510175 240.34402367 150.39510175 240.34402367 148.18359375 243.3046875 C147.31702691 245.61165956 147.31702691 245.61165956 149.15234375 248.484375 C149.94402286 249.70558575 150.74834694 250.91865581 151.5625 252.125 C168.58458859 278.975866 175.13844855 312.15914482 168.52734375 343.40625 C168.2289247 344.72970153 167.92820647 346.05263708 167.625 347.375 C167.35816406 348.6021875 167.09132813 349.829375 166.81640625 351.09375 C161.87202492 371.66237635 152.27861775 389.31834552 138.625 405.375 C138.00109375 406.13296875 137.3771875 406.8909375 136.734375 407.671875 C131.62714337 413.69259521 125.88425935 418.58330711 119.625 423.375 C118.85671875 423.97054688 118.0884375 424.56609375 117.296875 425.1796875 C105.99695383 433.52010551 93.63844733 439.33233321 80.375 443.8125 C79.4061084 444.14241943 78.4372168 444.47233887 77.43896484 444.81225586 C66.67972574 448.2863475 56.61238764 449.53728111 45.33764648 449.09082031 C35.55345738 448.49607912 35.55345738 448.49607912 26.68115234 451.77441406 C23.64115085 455.47234923 22.10963811 459.79240474 20.50292969 464.25341797 C19.09808834 467.64832101 16.98833529 470.35056879 14.6875 473.1875 C14.26686279 473.7148877 13.84622559 474.24227539 13.4128418 474.78564453 C12.16628572 476.32854262 10.89580098 477.85200905 9.625 479.375 C8.84511719 480.31988281 8.06523437 481.26476562 7.26171875 482.23828125 C-12.49277088 505.09658595 -42.55517398 520.30853816 -72.375 524.375 C-77.69222832 524.76142075 -82.98448335 524.81276491 -88.3125 524.75 C-89.36257736 524.74351944 -89.36257736 524.74351944 -90.43386841 524.73690796 C-100.70197233 524.66268917 -110.40996189 524.1301053 -120.375 521.375 C-121.76152173 521.03045619 -123.14825051 520.68674478 -124.53515625 520.34375 C-153.25770682 512.89728288 -178.11781757 494.31804104 -195.5 470.5625 C-195.93820068 469.97654053 -196.37640137 469.39058105 -196.82788086 468.78686523 C-199.05218242 465.69481146 -200.39193417 463.32062941 -201.54296875 459.625 C-202.93996819 455.27666046 -203.78031918 453.26457035 -207.375 450.375 C-214.3904066 448.93173908 -221.62913961 449.3745577 -228.75390625 449.453125 C-256.39292742 449.63293597 -285.31974889 436.00930907 -305.20703125 417.38671875 C-307.45895684 415.23772449 -307.45895684 415.23772449 -310.4375 413 C-333.20442928 392.65508447 -346.03295568 361.16137563 -349.375 331.375 C-350.79378754 300.30933082 -344.19024276 271.15142937 -326.375 245.375 C-326.70371094 244.80136719 -327.03242188 244.22773438 -327.37109375 243.63671875 C-345.30323982 211.61155815 -354.63077193 177.89216442 -346.375 141.375 C-346.20871094 140.62766602 -346.04242188 139.88033203 -345.87109375 139.11035156 C-343.23292329 127.65385207 -339.05574742 117.63708512 -333.375 107.375 C-332.79621094 106.29347656 -332.21742188 105.21195313 -331.62109375 104.09765625 C-327.60272991 96.85341332 -322.78735648 90.62736948 -317.375 84.375 C-316.35599609 83.15490234 -316.35599609 83.15490234 -315.31640625 81.91015625 C-311.81024907 77.76253996 -311.81024907 77.76253996 -310.375 76.375 C-309.715 76.375 -309.055 76.375 -308.375 76.375 C-307.88 74.89 -307.88 74.89 -307.375 73.375 C-289.02902447 54.54659579 -258.56946726 41.45012424 -232.375 40.375 C-230.31881215 40.40534455 -228.26279081 40.44821298 -226.20703125 40.5 C-214.61812093 41.29129168 -214.61812093 41.29129168 -204.5625 36.9140625 C-202.82953336 33.47312392 -201.64140839 30.01118456 -200.375 26.375 C-198.93409138 23.87467919 -197.27925115 21.56724496 -195.5625 19.25 C-195.13864014 18.66702148 -194.71478027 18.08404297 -194.27807617 17.48339844 C-173.81017882 -10.21005798 -143.13176595 -28.50754249 -109.20092773 -33.9753418 C-68.50147332 -39.13675384 -30.49957339 -26.72737879 0 0 Z M-179.375 20.375 C-185.03093387 27.17443528 -189.36139244 34.51737393 -193.375 42.375 C-193.86355469 43.30183594 -194.35210937 44.22867188 -194.85546875 45.18359375 C-197.54287057 50.02916855 -197.54287057 50.02916855 -198.375 55.375 C-199.28378906 55.16387573 -199.28378906 55.16387573 -200.2109375 54.94848633 C-206.33124357 53.61320032 -212.11727793 53.02146381 -218.375 53.0625 C-219.28072754 53.06741455 -220.18645508 53.0723291 -221.11962891 53.07739258 C-252.48496655 53.61174876 -280.0094298 66.8245016 -302.375 88.375 C-303.03242188 88.96925781 -303.68984375 89.56351562 -304.3671875 90.17578125 C-318.15033991 102.97442277 -327.47211002 122.49387184 -332.375 140.375 C-332.69339844 141.47070312 -333.01179688 142.56640625 -333.33984375 143.6953125 C-340.94778934 174.47769144 -333.24351054 206.72873534 -317.2734375 233.4296875 C-314.82353663 237.23056252 -312.24225313 240.87782004 -309.375 244.375 C-309.81070313 245.05304688 -310.24640625 245.73109375 -310.6953125 246.4296875 C-312.5990998 249.40487025 -314.48856823 252.38878615 -316.375 255.375 C-316.88804687 256.17679687 -317.40109375 256.97859375 -317.9296875 257.8046875 C-329.60826555 276.55353984 -335.55047075 296.41430177 -335.5625 318.5 C-335.57474609 319.66015625 -335.58699219 320.8203125 -335.59960938 322.015625 C-335.65029566 352.22465147 -322.79467928 380.69823393 -301.74609375 402.03515625 C-300.62384186 403.14989516 -299.50026188 404.26329957 -298.375 405.375 C-297.52035156 406.23996094 -296.66570312 407.10492188 -295.78515625 407.99609375 C-281.32183791 421.88184197 -261.69625514 430.06454061 -242.375 434.375 C-241.45203125 434.60058594 -240.5290625 434.82617188 -239.578125 435.05859375 C-232.65507533 436.50923277 -225.73377743 436.57823267 -218.6875 436.625 C-217.22570312 436.63901855 -217.22570312 436.63901855 -215.734375 436.65332031 C-209.65058831 436.62641921 -204.26576728 435.90380881 -198.375 434.375 C-198.045 435.550625 -197.715 436.72625 -197.375 437.9375 C-188.25465917 464.95916096 -166.08254923 487.17962285 -140.93383789 499.70458984 C-122.16907617 508.68734107 -102.14804686 512.49844029 -81.375 511.375 C-80.15296875 511.31699219 -78.9309375 511.25898437 -77.671875 511.19921875 C-47.11670888 508.59008419 -19.31983017 492.15286467 0.625 469.375 C5.89485923 462.92927035 10.09434636 455.79502612 14.0625 448.5 C14.39290283 447.89365723 14.72330566 447.28731445 15.0637207 446.66259766 C17.17821172 442.62629509 18.50853999 438.76229513 19.625 434.375 C20.42679687 434.519375 21.22859375 434.66375 22.0546875 434.8125 C51.8136302 439.67110289 81.67919554 433.33880257 106.64086914 416.11328125 C111.99416454 412.25645313 116.89602124 407.97382338 121.625 403.375 C122.23472656 402.81554687 122.84445312 402.25609375 123.47265625 401.6796875 C142.5349327 383.7029621 155.19257263 355.63366895 156.80200195 329.50097656 C157.10115323 314.92718426 156.92505501 301.37153668 152.625 287.375 C152.274375 286.18390625 151.92375 284.9928125 151.5625 283.765625 C147.01078437 269.79438674 139.73354895 256.86616666 130.625 245.375 C132.83362465 241.31113064 135.17963523 237.58942147 137.9375 233.875 C154.59791757 210.29355243 160.43960054 178.37582426 155.8984375 150.12890625 C155.05718814 145.79958276 153.91951259 141.58859561 152.625 137.375 C152.274375 136.18390625 151.92375 134.9928125 151.5625 133.765625 C141.76880905 103.70443472 120.61263127 80.38069795 92.9375 65.625 C75.64826181 57.42496132 58.42054019 53.30082628 39.3125 53.125 C38.39283447 53.1154126 37.47316895 53.1058252 36.52563477 53.09594727 C30.6057224 53.12537295 25.3606286 53.90162752 19.625 55.375 C19.53347656 54.70726563 19.44195312 54.03953125 19.34765625 53.3515625 C18.4252292 49.55216029 16.81437278 46.22076136 15.0625 42.75 C14.70534912 42.04214355 14.34819824 41.33428711 13.98022461 40.60498047 C8.65649999 30.31252405 1.54581439 21.7746201 -6.375 13.375 C-7.38626953 12.24964844 -7.38626953 12.24964844 -8.41796875 11.1015625 C-18.35359235 0.47622394 -31.23581941 -6.68035913 -44.375 -12.625 C-45.85613281 -13.31722656 -45.85613281 -13.31722656 -47.3671875 -14.0234375 C-94.23801249 -34.11093393 -146.73161237 -16.03608245 -179.375 20.375 Z " fill="#292929" transform="translate(489.375,42.625)"/>
<path d="M0 0 C8.34621336 -0.09342243 16.69220172 -0.16412577 25.03881168 -0.20724869 C28.91612008 -0.22796437 32.79306609 -0.25598112 36.67016602 -0.30175781 C40.42442223 -0.34579755 44.17833395 -0.36925687 47.9328289 -0.37950897 C49.35231373 -0.38679779 50.77178358 -0.40102457 52.19111824 -0.42292023 C67.76554894 -0.65323001 80.7491783 2.01065399 92.75 12.375 C100.87948696 21.85940145 103.02831254 31.54643253 102.22509766 43.94091797 C100.65304156 58.32130968 90.81029152 70.64482842 80.88671875 80.546875 C78.71317451 82.22090907 76.55238245 83.02582021 74 84 C84.94861339 102.08018879 84.94861339 102.08018879 96.09790039 120.03686523 C99.05454345 124.75218958 101.85958983 129.51167259 104.5390625 134.390625 C105.13783203 135.45087891 105.73660156 136.51113281 106.35351562 137.60351562 C107.50687172 139.65208969 108.62983659 141.71817127 109.71679688 143.80273438 C112.66769809 149.1424061 112.66769809 149.1424061 117.87792969 151.85351562 C120.63599342 152.11299426 123.2381846 152.18067369 126 152 C125.67 153.32 125.34 154.64 125 156 C117.05050468 157.68269628 108.78380274 158.85772475 101 156 C94.34843624 150.20772917 90.7451645 141.51655134 86.89746094 133.71289062 C83.31219804 126.54423679 78.84444499 119.86154536 74.54541016 113.1081543 C71.18715548 107.77375587 68.17441212 102.68669189 66.08300781 96.72290039 C64.48663247 93.47153918 64.48663247 93.47153918 59 88 C44.15 87.505 44.15 87.505 29 87 C29 108.12 29 129.24 29 151 C34.28 151.33 39.56 151.66 45 152 C45 153.32 45 154.64 45 156 C30.15 156 15.3 156 0 156 C0 154.68 0 153.36 0 152 C6.435 151.01 6.435 151.01 13 150 C13.33 102.15 13.66 54.3 14 5 C9.38 4.34 4.76 3.68 0 3 C0 2.01 0 1.02 0 0 Z " fill="#2B2B2B" transform="translate(249,635)"/>
<path d="M0 0 C8.1200113 -0.06998596 16.23989333 -0.12305486 24.36013317 -0.15543652 C28.13204405 -0.17099016 31.90374627 -0.1920359 35.67553711 -0.22631836 C39.3260276 -0.25928481 42.97631936 -0.27693011 46.6269474 -0.28463173 C48.00898676 -0.29010925 49.39101716 -0.300802 50.7729702 -0.31719017 C65.48485605 -0.48446956 77.95307699 1.9107249 90.25 10.1875 C98.52097146 18.64644809 101.42702657 28.11129108 101.36352539 39.79956055 C100.92568978 56.77785275 90.54744938 69.54096907 79 81 C75.40889831 84 75.40889831 84 73 84 C73.31001953 84.49999512 73.62003906 84.99999023 73.93945312 85.51513672 C75.46007014 87.96815535 76.9801248 90.42152166 78.5 92.875 C79.07806396 93.80812012 79.65612793 94.74124023 80.25170898 95.70263672 C84.19087471 102.06578369 88.11600976 108.43734979 92.02856445 114.81689453 C93.38555114 117.02397286 94.74738141 119.22808044 96.11401367 121.42919922 C99.26555 126.50825631 102.3632096 131.5962644 105.296875 136.8046875 C106.06632446 138.12895752 106.06632446 138.12895752 106.85131836 139.47998047 C107.79073328 141.10013767 108.70301069 142.73650331 109.58032227 144.39111328 C111.62628184 147.8538658 112.89848829 149.63302137 116.80224609 150.93359375 C119.54363803 151.44215198 122.22014971 151.80313111 125 152 C125 153.32 125 154.64 125 156 C116.75231135 157.24385096 108.13120029 158.31552516 100 156 C94.49937558 151.91063666 92.12284226 145.09142885 89.42382812 138.99853516 C86.94729281 133.78303331 83.75347837 129.02973023 80.625 124.1875 C79.36250544 122.18050762 78.10340972 120.17137334 76.84765625 118.16015625 C76.21875488 117.15484863 75.58985352 116.14954102 74.94189453 115.11376953 C71.62655895 109.79772855 68.33659547 104.46652495 65.0625 99.125 C64.45293457 98.13781982 63.84336914 97.15063965 63.21533203 96.13354492 C62.66087402 95.22580322 62.10641602 94.31806152 61.53515625 93.3828125 C61.044104 92.58246582 60.55305176 91.78211914 60.04711914 90.95751953 C59 89 59 89 59 87 C49.1 87 39.2 87 29 87 C29 108.12 29 129.24 29 151 C33.95 151.33 38.9 151.66 44 152 C44 153.32 44 154.64 44 156 C29.15 156 14.3 156 -1 156 C-1 154.68 -1 153.36 -1 152 C-0.07316406 151.86722656 0.85367187 151.73445312 1.80859375 151.59765625 C3.60490234 151.33275391 3.60490234 151.33275391 5.4375 151.0625 C6.63246094 150.88847656 7.82742188 150.71445312 9.05859375 150.53515625 C11.87955676 150.31014787 11.87955676 150.31014787 13 149 C13.09648248 147.15238732 13.12187318 145.3010419 13.12025452 143.45091248 C13.12162918 142.24631378 13.12300385 141.04171509 13.12442017 139.8006134 C13.12088056 138.45358252 13.11724575 137.10655188 13.11352539 135.75952148 C13.11324352 134.35052492 13.11340125 132.94152821 13.1139679 131.53253174 C13.11425589 127.6959237 13.10835894 123.85934666 13.10139394 120.02274585 C13.09516063 116.01753059 13.09455662 112.0123147 13.09336853 108.00709534 C13.09025515 100.41747996 13.08204167 92.82787892 13.07201904 85.23826987 C13.06085812 76.59996076 13.05534751 67.96165099 13.05032361 59.32333648 C13.03985906 41.54888263 13.02205905 23.77444299 13 6 C8.71 5.01 4.42 4.02 0 3 C0 2.01 0 1.02 0 0 Z " fill="#2B2B2B" transform="translate(432,635)"/>
<path d="M0 0 C14.24023491 -0.09412068 28.48042047 -0.16403924 42.72090435 -0.20724869 C49.33545001 -0.2280014 55.94978469 -0.25609073 62.56420898 -0.30175781 C68.96389105 -0.34565884 75.36337194 -0.36922934 81.76319313 -0.37950897 C84.18806939 -0.38682172 86.61293636 -0.40109803 89.03772545 -0.42292023 C115.25235657 -0.64916347 140.82419571 1.62970092 161 20 C168.53742087 27.6699146 171.36551604 36.93229005 171.4375 47.5 C171.09740969 66.74239368 161.8366431 82.26688999 149 96 C148.39027344 96.70125 147.78054688 97.4025 147.15234375 98.125 C131.07323736 115.70579969 107.66369265 126.2701222 86 135 C84.79859375 135.495 83.5971875 135.99 82.359375 136.5 C71.59729883 140.65925649 60.28152783 142.73539837 49 145 C48.16710449 145.18393311 47.33420898 145.36786621 46.47607422 145.55737305 C44.04072454 145.99272002 41.82592614 146.11446208 39.35546875 146.09765625 C38.51435547 146.09443359 37.67324219 146.09121094 36.80664062 146.08789062 C35.94232422 146.07951172 35.07800781 146.07113281 34.1875 146.0625 C33.30384766 146.05798828 32.42019531 146.05347656 31.50976562 146.04882812 C29.33981441 146.03709866 27.16989828 146.01916495 25 146 C25.55945313 146.71800781 26.11890625 147.43601562 26.6953125 148.17578125 C31.27990232 154.09447197 35.78956318 160.0551917 40.20385742 166.10229492 C46.20910331 174.3277758 52.389216 182.24981466 59 190 C60.48356179 191.80890428 61.96274198 193.62141106 63.4375 195.4375 C65.90389151 198.46763814 68.39387346 201.47213227 70.9375 204.4375 C71.43580322 205.01959229 71.93410645 205.60168457 72.44750977 206.20141602 C73.41835438 207.33260986 74.39264088 208.46086162 75.37084961 209.58569336 C77.22832203 211.75088873 78.87456498 213.74261949 80.12890625 216.31640625 C80.94247585 218.36819444 80.94247585 218.36819444 84 219 C85.3671875 220.390625 85.3671875 220.390625 86.875 222.25 C103.1354647 241.35776126 128.96602178 266.44201309 155.22045898 269.23632812 C157.69302392 269.37627028 160.14850628 269.42993096 162.625 269.4375 C163.50075684 269.44136719 164.37651367 269.44523437 165.27880859 269.44921875 C173.11333007 269.31108945 178.90634641 267.32144315 186 264 C186.66 264 187.32 264 188 264 C187.8046875 265.83984375 187.8046875 265.83984375 187 268 C174.5406905 276.11464253 156.83240766 278.83659612 142.3828125 276.38671875 C121.32729875 271.33428575 104.28065273 258.87716901 89 244 C88.51370117 243.52884766 88.02740234 243.05769531 87.52636719 242.57226562 C68.05930439 223.63483094 52.01795726 201.51557519 36.83984375 179.07543945 C33.02360739 173.44614092 29.07510786 167.92813485 25.0625 162.4375 C13 145.87028755 13 145.87028755 13 141 C13.825 140.98018066 14.65 140.96036133 15.5 140.93994141 C59.31847362 139.83347604 102.29868369 131.63062402 134.43725586 99.10571289 C142.27011367 90.80760877 148.64631395 80.95876201 152 70 C152.44472656 68.57880859 152.44472656 68.57880859 152.8984375 67.12890625 C156.00363221 55.71945229 157.36460429 41.53186976 152.42578125 30.44921875 C145.08065144 17.83169439 133.18898429 11.73589197 119.46508789 8.07763672 C109.77376388 5.68904968 100.59247828 4.76052976 90.64453125 4.70483398 C89.22906434 4.69339294 87.81363783 4.6730679 86.3984375 4.64331055 C74.74580119 4.39918345 62.03412876 4.62762884 53 13 C51.57447013 15.39864608 50.35655346 17.67298392 49.1875 20.1875 C48.84549561 20.89817627 48.50349121 21.60885254 48.15112305 22.34106445 C47.08931152 24.55546351 46.04466717 26.77747307 45 29 C44.38923389 30.27141678 43.77729854 31.54227269 43.1640625 32.8125 C31.97754262 56.12545807 21.79138352 79.90919587 11.78710938 103.74755859 C10.61087976 106.54939908 9.42996648 109.34918026 8.24414062 112.14697266 C0.06481498 131.44508465 -7.77764327 150.8647417 -15.4375 170.375 C-15.85638489 171.44006775 -16.27526978 172.5051355 -16.70684814 173.60247803 C-21.05589767 184.6730776 -25.33362615 195.76619387 -29.41796875 206.9375 C-29.73865829 207.81127289 -30.05934784 208.68504578 -30.38975525 209.58529663 C-40.08091795 235.1648011 -40.08091795 235.1648011 -38.75 261.5 C-36.23581413 265.0916941 -34.13970343 266.62009886 -30 268 C-27.48945095 268.1529647 -25.00111475 268.25695178 -22.48828125 268.31640625 C-21.39594429 268.3475779 -21.39594429 268.3475779 -20.28153992 268.37937927 C-17.95862125 268.44468746 -15.63559094 268.50367237 -13.3125 268.5625 C-11.73631665 268.60570305 -10.16014452 268.64931792 -8.58398438 268.69335938 C-4.72277025 268.8003496 -0.86144397 268.90166961 3 269 C2.34 269.99 1.68 270.98 1 272 C-1.03585815 272.35403442 -1.03585815 272.35403442 -3.56982422 272.32470703 C-4.51775848 272.32125275 -5.46569275 272.31779846 -6.44235229 272.3142395 C-7.46942291 272.29561859 -8.49649353 272.27699768 -9.5546875 272.2578125 C-11.13432785 272.24788773 -11.13432785 272.24788773 -12.74588013 272.23776245 C-16.12254585 272.21429059 -19.49856629 272.17058209 -22.875 272.125 C-26.24421598 272.08993902 -29.61339438 272.05912428 -32.98269653 272.03366089 C-35.08177701 272.01668935 -37.18081849 271.99355188 -39.27975464 271.96365356 C-40.23399323 271.95389496 -41.18823181 271.94413635 -42.17138672 271.93408203 C-43.00918671 271.92281281 -43.84698669 271.91154358 -44.71017456 271.89993286 C-46.95714977 271.99812741 -48.83477221 272.42342464 -51 273 C-57.3932385 273.44864832 -57.3932385 273.44864832 -59.71826172 271.72949219 C-61 270 -61 270 -60.9453125 266.078125 C-60.03597288 260.04980957 -57.97165891 254.45245143 -55.875 248.75 C-55.44123047 247.55342773 -55.00746094 246.35685547 -54.56054688 245.12402344 C-46.59174307 223.33448993 -37.51760476 201.93920755 -28.56420898 180.54101562 C-20.05283594 160.19701637 -11.84513786 139.73457192 -3.84954834 119.18280029 C-2.92877044 116.81698523 -2.00663751 114.45170056 -1.08447266 112.08642578 C8.36284343 87.84214101 17.65109653 63.54716472 26.51660156 39.08349609 C27.46637473 36.4636525 28.42333267 33.8466967 29.38964844 31.23291016 C30.58556523 27.99325215 31.76452315 24.74801927 32.9375 21.5 C33.27402588 20.59854248 33.61055176 19.69708496 33.95727539 18.76831055 C35.61031004 14.11009091 36.41560529 10.92662631 35 6 C31.36766898 4.78922299 28.04878013 4.87555836 24.26953125 4.90234375 C23.14390022 4.90446617 23.14390022 4.90446617 21.99552917 4.90663147 C19.6011454 4.9122244 17.20685547 4.92477556 14.8125 4.9375 C13.18815239 4.94251592 11.56380332 4.94707866 9.93945312 4.95117188 C5.95959931 4.96219152 1.97981556 4.97945127 -2 5 C-1.34 3.35 -0.68 1.7 0 0 Z " fill="#2D2D2D" transform="translate(347,119)"/>
<path d="M0 0 C39.98738318 0 39.98738318 0 50.0546875 9.65234375 C58.43031679 19.76028191 58.85186676 32.45231814 58 45 C55.86327723 59.21463878 47.64142976 69.76614131 39 81 C26.13 81 13.26 81 0 81 C0 54.27 0 27.54 0 0 Z " fill="#FBFBFB" transform="translate(278,638)"/>
<path d="M0 0 C38.58178828 0 38.58178828 0 48.75 9.0625 C56.91041073 17.67005653 57.61870778 30.66947167 57.40625 41.890625 C56.60503076 57.12523646 47.5988177 69.80137936 38 81 C25.46 81 12.92 81 0 81 C0 54.27 0 27.54 0 0 Z " fill="#FDFDFD" transform="translate(461,638)"/>
<path d="M0 0 C10.89 0 21.78 0 33 0 C32.34 0.99 31.68 1.98 31 3 C28.14257812 3.28051758 28.14257812 3.28051758 24.53125 3.14453125 C23.23832031 3.09876953 21.94539063 3.05300781 20.61328125 3.00585938 C19.93861816 2.97387451 19.26395508 2.94188965 18.56884766 2.90893555 C16.50840501 2.81289178 14.44832736 2.74346754 12.38671875 2.67773438 C2.26920049 2.26920049 2.26920049 2.26920049 0 0 Z " fill="#363636" transform="translate(317,388)"/>
<path d="M0 0 C-0.125 1.8125 -0.125 1.8125 -1 4 C-6.03571429 7 -6.03571429 7 -9 7 C-9 5.68 -9 4.36 -9 3 C-2.25 0 -2.25 0 0 0 Z " fill="#494949" transform="translate(535,383)"/>
</svg>
